<?xml version="1.0" standalone="no"?>
<!DOCTYPE svg PUBLIC "-//W3C//DTD SVG 20010904//EN"
 "http://www.w3.org/TR/2001/REC-SVG-20010904/DTD/svg10.dtd">
<svg version="1.0" xmlns="http://www.w3.org/2000/svg"
 width="512.000000pt" height="512.000000pt" viewBox="0 0 512.000000 512.000000"
 preserveAspectRatio="xMidYMid meet">

<g transform="translate(0.000000,512.000000) scale(0.100000,-0.100000)"
fill="#000000" stroke="none">
<path d="M110 5113 c-8 -3 -26 -15 -38 -27 -56 -50 -52 124 -52 -2526 0 -2665
-4 -2475 55 -2530 l27 -25 830 -3 c552 -1 843 1 868 8 25 7 47 22 61 42 21 29
22 42 27 310 l5 279 -89 -8 c-154 -14 -351 -9 -433 11 -127 29 -213 76 -295
158 -62 62 -83 93 -141 208 -107 212 -154 272 -292 372 -94 67 -121 104 -98
134 12 16 27 19 112 19 89 0 104 -3 163 -31 99 -47 163 -104 255 -228 138
-186 243 -267 391 -302 86 -20 201 -14 299 17 119 36 120 38 150 136 28 93 68
173 117 236 16 20 27 37 24 37 -34 0 -373 76 -444 100 -191 63 -343 153 -466
274 -202 200 -307 463 -336 842 -25 327 47 598 218 817 52 66 54 83 29 196
-34 146 -19 369 34 529 31 92 44 98 165 78 131 -22 282 -81 454 -177 163 -92
191 -99 294 -75 341 80 769 80 1144 1 122 -25 128 -24 306 73 244 134 376 182
499 182 70 0 91 -17 116 -93 54 -161 66 -359 32 -525 -24 -113 -24 -113 80
-284 114 -188 150 -299 171 -530 18 -196 -9 -393 -82 -603 -157 -446 -426
-656 -977 -765 -87 -17 -166 -34 -176 -38 -15 -6 -12 -14 24 -62 48 -64 73
-117 102 -215 19 -65 21 -105 26 -550 7 -534 6 -526 75 -559 31 -14 119 -16
895 -16 l861 0 0 2508 c0 2484 0 2507 -20 2540 -11 18 -34 41 -52 52 -33 20
-55 20 -2468 19 -1339 0 -2442 -3 -2450 -6z"/>
</g>
</svg>
